# xmcd
#
# Track frame offsets:
#	150
#	15098
#	27512
#	41679
#	56982
#	74462
#	93301
#	109292
#	121907
#	134252
#	150168
#	160207
#
# Disc length: 2309 seconds
#
# Revision: 1
# Processed by: cddbd v1.5.2PL0 Copyright (c) Steve Scherf et al.
# Submitted via: audiograbber 1.83.01
#
DISCID=9709030c
DTITLE=Nyanse - På bedre tanker
DYEAR=2006
DGENRE=Dance
TTITLE0=Min Juvel
TTITLE1=Ut på tur
TTITLE2=Ekte kjärlighet
TTITLE3=På bedre tanker
TTITLE4=Vinden varm
TTITLE5=Helen
TTITLE6=Jeg dro min vei
TTITLE7=Califonia sun
TTITLE8=Sånn kan det gå
TTITLE9=I feel lucky
TTITLE10=Hormoner i sving
TTITLE11=Amors piler
EXTD=
EXTT0=
EXTT1=
EXTT2=
EXTT3=
EXTT4=
EXTT5=
EXTT6=
EXTT7=
EXTT8=
EXTT9=
EXTT10=
EXTT11=
PLAYORDER=
